<?xml version="1.0" standalone="no"?>
<!DOCTYPE svg PUBLIC "-//W3C//DTD SVG 20010904//EN"
 "http://www.w3.org/TR/2001/REC-SVG-20010904/DTD/svg10.dtd">
<svg version="1.0" xmlns="http://www.w3.org/2000/svg"
 width="700.000000pt" height="700.000000pt" viewBox="0 0 700.000000 700.000000"
 preserveAspectRatio="xMidYMid meet">
<metadata>
Created by potrace 1.14, written by Peter Selinger 2001-2017
</metadata>
<g transform="translate(0.000000,700.000000) scale(0.100000,-0.100000)"
fill="#000000" stroke="none">
<path d="M5021 5380 c0 -190 0 -351 0 -359 -1 -8 -14 4 -29 25 -109 149 -287
213 -502 180 -99 -15 -234 -103 -301 -196 -67 -94 -119 -227 -134 -345 -7 -58
-9 -281 -2 -292 3 -5 8 -29 11 -55 9 -69 49 -181 88 -246 42 -70 129 -160 190
-196 145 -84 371 -85 515 -1 49 29 112 87 138 128 9 15 20 27 24 27 3 0 5 -40
4 -90 -2 -49 1 -91 5 -91 26 -4 212 -3 213 1 4 25 3 1850 -1 1851 -3 1 -53 2
-112 3 l-106 1 -1 -345z m-258 -347 c116 -40 217 -174 242 -321 13 -82 15 -98
15 -176 0 -144 -20 -240 -72 -339 -73 -136 -215 -203 -372 -174 -186 33 -298
217 -300 492 0 121 7 186 28 256 42 136 131 233 246 270 39 12 168 7 213 -8z"/>
<path d="M1326 5498 c-32 -84 -67 -175 -78 -203 -11 -27 -23 -61 -28 -75 -4
-14 -58 -155 -120 -315 -234 -608 -390 -1021 -390 -1031 0 -6 48 -9 121 -9
103 0 122 3 130 18 8 14 62 163 139 387 7 19 18 40 25 45 11 10 791 13 798 4
2 -2 34 -89 71 -194 37 -104 73 -206 80 -225 l14 -34 110 -1 c140 -1 145 1
127 40 -8 17 -55 136 -104 265 -49 129 -191 503 -316 830 -125 327 -231 607
-237 623 l-10 27 -137 0 -137 0 -58 -152z m248 -231 c26 -72 84 -229 128 -347
44 -118 95 -256 113 -305 l33 -91 -328 0 -327 0 26 71 c211 575 297 805 301
805 3 0 27 -60 54 -133z"/>
<path d="M3123 5224 c-102 -21 -170 -59 -250 -141 l-72 -73 -3 97 -3 97 -108
1 -107 1 2 -670 3 -670 103 -1 c57 -1 105 2 107 6 3 3 5 191 5 416 1 333 4
422 16 469 51 192 185 293 382 287 131 -4 203 -56 255 -184 21 -52 22 -68 25
-514 1 -253 4 -465 6 -470 2 -6 46 -10 107 -10 l104 0 2 455 c2 508 -2 556
-56 674 -53 116 -144 192 -271 226 -63 17 -175 19 -247 4z"/>
<path d="M5545 5202 c-5 -5 -17 24 281 -701 l253 -614 -20 -51 c-100 -260
-136 -295 -306 -296 l-93 0 -1 -50 c-1 -27 -1 -61 -1 -75 0 -66 -10 -61 125
-59 178 3 255 30 330 117 42 50 116 208 227 487 56 140 107 269 115 285 12 28
246 611 340 848 24 59 42 107 41 108 -5 4 -219 3 -225 -1 -6 -4 -333 -813
-413 -1019 -8 -21 -39 51 -214 490 -113 283 -210 518 -214 523 -9 9 -216 16
-225 8z"/>
<path d="M3750 1960 l0 -930 110 0 110 0 1 98 c0 94 0 96 17 72 92 -135 232
-204 412 -202 246 2 424 150 508 423 42 137 48 310 17 494 -8 49 -40 135 -72
197 -72 138 -201 244 -337 277 -62 15 -195 12 -263 -5 -107 -27 -211 -101
-263 -186 l-20 -33 0 363 0 362 -110 0 -110 0 0 -930z m705 240 c128 -39 229
-185 253 -368 12 -86 8 -241 -8 -317 -28 -138 -107 -253 -208 -302 -50 -24
-69 -28 -147 -28 -76 0 -99 4 -145 26 -109 52 -184 160 -216 311 -14 70 -13
284 2 354 36 163 126 283 242 322 64 21 162 22 227 2z"/>
<path d="M375 2809 c-3 -3 -4 -405 -4 -893 l0 -887 121 3 122 3 1 420 0 420
438 3 437 2 0 -425 0 -425 120 0 c66 0 120 3 120 8 1 15 1 1619 1 1697 l-1 80
-117 0 -118 0 -3 -365 -2 -365 -433 1 c-237 1 -435 2 -438 3 -3 0 -5 163 -5
361 1 233 -3 360 -9 361 -38 5 -227 3 -230 -2z"/>
<path d="M5725 2390 c-213 -43 -377 -181 -456 -385 -50 -130 -65 -289 -43
-455 4 -30 8 -57 9 -60 1 -3 7 -25 14 -50 43 -151 169 -300 312 -368 46 -22
104 -44 129 -50 192 -46 405 -31 629 44 88 29 87 27 86 137 0 83 -2 97 -15 93
-8 -3 -53 -20 -100 -40 -47 -19 -123 -43 -170 -52 -114 -24 -285 -23 -365 0
-169 50 -277 184 -301 371 -2 22 -6 45 -9 52 -2 6 2 14 9 16 7 3 226 5 487 5
261 0 483 1 495 1 20 1 21 6 18 104 -5 233 -54 369 -178 492 -72 71 -115 97
-226 136 -41 14 -267 20 -325 9z m264 -191 c60 -19 129 -68 165 -118 39 -52
72 -144 78 -211 l3 -45 -392 -3 -391 -2 5 32 c19 131 77 232 170 296 86 60
258 84 362 51z"/>
<path d="M2180 1910 c2 -505 7 -560 66 -684 32 -68 104 -145 163 -175 126 -65
314 -71 446 -16 59 25 139 89 185 146 39 50 40 50 41 22 0 -15 1 -59 2 -98 l2
-70 108 -3 107 -3 0 98 c1 85 1 717 0 1111 l0 132 -109 0 -109 0 -1 -407 c-1
-225 -3 -419 -5 -433 -12 -117 -79 -230 -170 -287 -21 -14 -44 -26 -50 -28 -6
-1 -18 -5 -26 -8 -34 -15 -129 -22 -183 -15 -111 14 -191 84 -223 194 -22 76
-22 77 -23 557 l-1 427 -110 0 -111 0 1 -460z"/>
<path d="M6810 1700 l0 -670 95 0 95 0 0 670 0 670 -95 0 -95 0 0 -670z"/>
</g>
</svg>
